<svg width="513" height="138" viewBox="0 0 513 138" fill="none" xmlns="http://www.w3.org/2000/svg">
<path d="M19.186 47.66C15.27 47.66 11.904 47.066 9.088 45.878C6.272 44.69 4.138 43.128 2.686 41.192C1.234 39.256 0.464 37.166 0.376 34.922C0.376 34.526 0.508 34.196 0.772 33.932C1.036 33.668 1.366 33.536 1.762 33.536H7.636C8.164 33.536 8.56 33.646 8.824 33.866C9.132 34.042 9.418 34.35 9.682 34.79C10.122 36.286 11.134 37.54 12.718 38.552C14.302 39.564 16.458 40.07 19.186 40.07C22.31 40.07 24.664 39.564 26.248 38.552C27.832 37.496 28.624 36.044 28.624 34.196C28.624 32.964 28.206 31.952 27.37 31.16C26.578 30.368 25.368 29.686 23.74 29.114C22.156 28.542 19.78 27.838 16.612 27.002C11.42 25.77 7.614 24.142 5.194 22.118C2.818 20.05 1.63 17.124 1.63 13.34C1.63 10.788 2.312 8.522 3.676 6.542C5.084 4.562 7.086 3 9.682 1.856C12.322 0.711998 15.38 0.139997 18.856 0.139997C22.464 0.139997 25.588 0.777997 28.228 2.054C30.868 3.33 32.87 4.936 34.234 6.872C35.642 8.764 36.39 10.656 36.478 12.548C36.478 12.944 36.346 13.274 36.082 13.538C35.818 13.802 35.488 13.934 35.092 13.934H28.954C28.03 13.934 27.392 13.516 27.04 12.68C26.776 11.272 25.896 10.106 24.4 9.182C22.904 8.214 21.056 7.73 18.856 7.73C16.392 7.73 14.456 8.192 13.048 9.116C11.64 10.04 10.936 11.382 10.936 13.142C10.936 14.374 11.288 15.386 11.992 16.178C12.696 16.97 13.796 17.674 15.292 18.29C16.832 18.906 19.032 19.588 21.892 20.336C25.764 21.216 28.844 22.206 31.132 23.306C33.464 24.406 35.18 25.792 36.28 27.464C37.38 29.136 37.93 31.27 37.93 33.866C37.93 36.682 37.138 39.146 35.554 41.258C34.014 43.326 31.814 44.91 28.954 46.01C26.138 47.11 22.882 47.66 19.186 47.66ZM57.4397 47.66C53.3917 47.66 50.2017 46.34 47.8697 43.7C45.5377 41.016 44.3717 37.386 44.3717 32.81V14.264C44.3717 13.824 44.5257 13.45 44.8337 13.142C45.1417 12.834 45.5157 12.68 45.9557 12.68H51.7637C52.2477 12.68 52.6217 12.834 52.8857 13.142C53.1937 13.406 53.3477 13.78 53.3477 14.264V32.414C53.3477 37.87 55.7457 40.598 60.5417 40.598C62.8297 40.598 64.6337 39.872 65.9537 38.42C67.3177 36.968 67.9997 34.966 67.9997 32.414V14.264C67.9997 13.824 68.1537 13.45 68.4617 13.142C68.7697 12.834 69.1437 12.68 69.5837 12.68H75.3917C75.8757 12.68 76.2497 12.834 76.5137 13.142C76.8217 13.406 76.9757 13.78 76.9757 14.264V45.416C76.9757 45.856 76.8217 46.23 76.5137 46.538C76.2497 46.846 75.8757 47 75.3917 47H70.0457C69.6057 47 69.2317 46.846 68.9237 46.538C68.6157 46.23 68.4617 45.856 68.4617 45.416V42.71C65.9977 46.01 62.3237 47.66 57.4397 47.66ZM87.3439 59.54C86.9039 59.54 86.5299 59.386 86.2219 59.078C85.9139 58.814 85.7599 58.44 85.7599 57.956V14.264C85.7599 13.78 85.9139 13.406 86.2219 13.142C86.5299 12.834 86.9039 12.68 87.3439 12.68H92.5579C93.0419 12.68 93.4159 12.834 93.6799 13.142C93.9879 13.406 94.1419 13.78 94.1419 14.264V16.904C96.6059 13.648 100.126 12.02 104.702 12.02C109.146 12.02 112.556 13.428 114.932 16.244C117.308 19.016 118.584 22.778 118.76 27.53C118.804 28.058 118.826 28.828 118.826 29.84C118.826 30.896 118.804 31.688 118.76 32.216C118.584 36.836 117.308 40.576 114.932 43.436C112.556 46.252 109.146 47.66 104.702 47.66C100.258 47.66 96.8699 46.098 94.5379 42.974V57.956C94.5379 58.44 94.3839 58.814 94.0759 59.078C93.8119 59.386 93.4379 59.54 92.9539 59.54H87.3439ZM102.26 40.598C107.012 40.598 109.542 37.672 109.85 31.82C109.894 31.38 109.916 30.72 109.916 29.84C109.916 28.96 109.894 28.3 109.85 27.86C109.542 22.008 107.012 19.082 102.26 19.082C99.7079 19.082 97.8159 19.896 96.5839 21.524C95.3519 23.152 94.6699 25.154 94.5379 27.53L94.4719 30.038L94.5379 32.612C94.6259 34.812 95.3079 36.704 96.5839 38.288C97.9039 39.828 99.7959 40.598 102.26 40.598ZM141.019 47.66C136.135 47.66 132.241 46.252 129.337 43.436C126.477 40.576 124.959 36.572 124.783 31.424L124.717 29.774L124.783 28.124C125.003 23.108 126.543 19.17 129.403 16.31C132.307 13.45 136.179 12.02 141.019 12.02C146.211 12.02 150.215 13.604 153.031 16.772C155.891 19.94 157.321 24.164 157.321 29.444V30.83C157.321 31.27 157.167 31.644 156.859 31.952C156.551 32.26 156.155 32.414 155.671 32.414H133.759V32.942C133.847 35.362 134.507 37.408 135.739 39.08C137.015 40.708 138.753 41.522 140.953 41.522C143.549 41.522 145.639 40.51 147.223 38.486C147.619 38.002 147.927 37.694 148.147 37.562C148.411 37.43 148.785 37.364 149.269 37.364H154.945C155.341 37.364 155.671 37.496 155.935 37.76C156.243 37.98 156.397 38.266 156.397 38.618C156.397 39.674 155.759 40.928 154.483 42.38C153.251 43.788 151.469 45.02 149.137 46.076C146.805 47.132 144.099 47.66 141.019 47.66ZM148.345 26.87V26.672C148.345 24.076 147.685 21.986 146.365 20.402C145.089 18.818 143.307 18.026 141.019 18.026C138.731 18.026 136.949 18.818 135.673 20.402C134.397 21.986 133.759 24.076 133.759 26.672V26.87H148.345ZM165.911 47C165.471 47 165.097 46.846 164.789 46.538C164.481 46.23 164.327 45.856 164.327 45.416V14.33C164.327 13.89 164.481 13.516 164.789 13.208C165.097 12.856 165.471 12.68 165.911 12.68H171.257C171.741 12.68 172.137 12.834 172.445 13.142C172.753 13.45 172.907 13.846 172.907 14.33V17.036C173.963 15.628 175.283 14.55 176.867 13.802C178.495 13.054 180.343 12.68 182.411 12.68H185.117C185.601 12.68 185.975 12.834 186.239 13.142C186.547 13.406 186.701 13.78 186.701 14.264V19.016C186.701 19.456 186.547 19.83 186.239 20.138C185.975 20.446 185.601 20.6 185.117 20.6H179.969C177.901 20.6 176.273 21.194 175.085 22.382C173.897 23.57 173.303 25.198 173.303 27.266V45.416C173.303 45.856 173.149 46.23 172.841 46.538C172.533 46.846 172.137 47 171.653 47H165.911ZM207.888 47C207.448 47 207.074 46.846 206.766 46.538C206.458 46.23 206.304 45.856 206.304 45.416V2.45C206.304 1.966 206.436 1.57 206.7 1.262C207.008 0.953997 207.404 0.799997 207.888 0.799997H236.532C237.016 0.799997 237.412 0.953997 237.72 1.262C238.028 1.57 238.182 1.966 238.182 2.45V7.07C238.182 7.554 238.028 7.95 237.72 8.258C237.412 8.522 237.016 8.654 236.532 8.654H215.346V21.194H235.212C235.696 21.194 236.092 21.348 236.4 21.656C236.708 21.964 236.862 22.36 236.862 22.844V27.464C236.862 27.948 236.708 28.344 236.4 28.652C236.092 28.916 235.696 29.048 235.212 29.048H215.346V45.416C215.346 45.9 215.192 46.296 214.884 46.604C214.576 46.868 214.18 47 213.696 47H207.888ZM253.441 47.66C251.197 47.66 249.129 47.22 247.237 46.34C245.389 45.416 243.915 44.184 242.815 42.644C241.759 41.104 241.231 39.41 241.231 37.562C241.231 34.57 242.441 32.15 244.861 30.302C247.281 28.454 250.603 27.2 254.827 26.54L263.869 25.22V23.834C263.869 21.898 263.385 20.446 262.417 19.478C261.449 18.51 259.887 18.026 257.731 18.026C256.279 18.026 255.091 18.312 254.167 18.884C253.287 19.412 252.583 19.94 252.055 20.468C251.527 21.04 251.175 21.414 250.999 21.59C250.823 22.118 250.493 22.382 250.009 22.382H244.927C244.531 22.382 244.179 22.25 243.871 21.986C243.607 21.722 243.475 21.37 243.475 20.93C243.519 19.83 244.047 18.576 245.059 17.168C246.115 15.76 247.721 14.55 249.877 13.538C252.033 12.526 254.673 12.02 257.797 12.02C262.989 12.02 266.773 13.186 269.149 15.518C271.525 17.85 272.713 20.908 272.713 24.692V45.416C272.713 45.856 272.559 46.23 272.251 46.538C271.987 46.846 271.613 47 271.129 47H265.783C265.343 47 264.969 46.846 264.661 46.538C264.353 46.23 264.199 45.856 264.199 45.416V42.842C263.231 44.25 261.845 45.416 260.041 46.34C258.281 47.22 256.081 47.66 253.441 47.66ZM255.685 41.39C258.105 41.39 260.085 40.598 261.625 39.014C263.165 37.43 263.935 35.12 263.935 32.084V30.698L257.335 31.754C254.783 32.15 252.847 32.788 251.527 33.668C250.251 34.548 249.613 35.626 249.613 36.902C249.613 38.31 250.207 39.41 251.395 40.202C252.583 40.994 254.013 41.39 255.685 41.39ZM294.182 47.66C290.882 47.66 288.11 47.176 285.866 46.208C283.622 45.196 281.95 44.03 280.85 42.71C279.794 41.346 279.266 40.18 279.266 39.212C279.266 38.772 279.42 38.42 279.728 38.156C280.036 37.892 280.388 37.76 280.784 37.76H285.998C286.394 37.76 286.724 37.914 286.988 38.222C287.164 38.354 287.626 38.75 288.374 39.41C289.122 40.114 290.002 40.664 291.014 41.06C292.026 41.456 293.148 41.654 294.38 41.654C296.14 41.654 297.592 41.302 298.736 40.598C299.88 39.894 300.452 38.926 300.452 37.694C300.452 36.77 300.188 36.022 299.66 35.45C299.176 34.878 298.274 34.372 296.954 33.932C295.634 33.448 293.676 32.942 291.08 32.414C287.34 31.622 284.568 30.412 282.764 28.784C281.004 27.156 280.124 25 280.124 22.316C280.124 20.556 280.652 18.906 281.708 17.366C282.764 15.782 284.326 14.506 286.394 13.538C288.506 12.526 291.014 12.02 293.918 12.02C296.866 12.02 299.418 12.504 301.574 13.472C303.73 14.396 305.358 15.518 306.458 16.838C307.602 18.114 308.174 19.258 308.174 20.27C308.174 20.666 308.02 21.018 307.712 21.326C307.448 21.59 307.118 21.722 306.722 21.722H301.838C301.486 21.722 301.112 21.568 300.716 21.26C300.408 21.04 299.924 20.622 299.264 20.006C298.604 19.39 297.834 18.906 296.954 18.554C296.074 18.202 295.04 18.026 293.852 18.026C292.224 18.026 290.948 18.378 290.024 19.082C289.144 19.786 288.704 20.71 288.704 21.854C288.704 22.69 288.924 23.372 289.364 23.9C289.804 24.428 290.662 24.934 291.938 25.418C293.214 25.902 295.128 26.386 297.68 26.87C301.904 27.706 304.918 29.004 306.722 30.764C308.57 32.524 309.494 34.68 309.494 37.232C309.494 40.312 308.152 42.82 305.468 44.756C302.784 46.692 299.022 47.66 294.182 47.66ZM331.688 47C327.684 47 324.67 45.966 322.646 43.898C320.666 41.786 319.676 38.706 319.676 34.658V19.676H314.462C314.022 19.676 313.648 19.522 313.34 19.214C313.032 18.862 312.878 18.466 312.878 18.026V14.264C312.878 13.824 313.032 13.45 313.34 13.142C313.648 12.834 314.022 12.68 314.462 12.68H319.676V1.724C319.676 1.24 319.83 0.865999 320.138 0.601999C320.446 0.293998 320.82 0.139997 321.26 0.139997H326.606C327.09 0.139997 327.464 0.293998 327.728 0.601999C328.036 0.865999 328.19 1.24 328.19 1.724V12.68H336.44C336.924 12.68 337.298 12.834 337.562 13.142C337.87 13.406 338.024 13.78 338.024 14.264V18.026C338.024 18.51 337.87 18.906 337.562 19.214C337.254 19.522 336.88 19.676 336.44 19.676H328.19V33.998C328.19 35.89 328.52 37.32 329.18 38.288C329.84 39.256 330.94 39.74 332.48 39.74H337.034C337.474 39.74 337.848 39.894 338.156 40.202C338.464 40.51 338.618 40.884 338.618 41.324V45.416C338.618 45.856 338.464 46.23 338.156 46.538C337.892 46.846 337.518 47 337.034 47H331.688ZM293.821 125.66C289.905 125.66 286.539 125.066 283.723 123.878C280.907 122.69 278.773 121.128 277.321 119.192C275.869 117.256 275.099 115.166 275.011 112.922C275.011 112.526 275.143 112.196 275.407 111.932C275.671 111.668 276.001 111.536 276.397 111.536H282.271C282.799 111.536 283.195 111.646 283.459 111.866C283.767 112.042 284.053 112.35 284.317 112.79C284.757 114.286 285.769 115.54 287.353 116.552C288.937 117.564 291.093 118.07 293.821 118.07C296.945 118.07 299.299 117.564 300.883 116.552C302.467 115.496 303.259 114.044 303.259 112.196C303.259 110.964 302.841 109.952 302.005 109.16C301.213 108.368 300.003 107.686 298.375 107.114C296.791 106.542 294.415 105.838 291.247 105.002C286.055 103.77 282.249 102.142 279.829 100.118C277.453 98.05 276.265 95.124 276.265 91.34C276.265 88.788 276.947 86.522 278.311 84.542C279.719 82.562 281.721 81 284.317 79.856C286.957 78.712 290.015 78.14 293.491 78.14C297.099 78.14 300.223 78.778 302.863 80.054C305.503 81.33 307.505 82.936 308.869 84.872C310.277 86.764 311.025 88.656 311.113 90.548C311.113 90.944 310.981 91.274 310.717 91.538C310.453 91.802 310.123 91.934 309.727 91.934H303.589C302.665 91.934 302.027 91.516 301.675 90.68C301.411 89.272 300.531 88.106 299.035 87.182C297.539 86.214 295.691 85.73 293.491 85.73C291.027 85.73 289.091 86.192 287.683 87.116C286.275 88.04 285.571 89.382 285.571 91.142C285.571 92.374 285.923 93.386 286.627 94.178C287.331 94.97 288.431 95.674 289.927 96.29C291.467 96.906 293.667 97.588 296.527 98.336C300.399 99.216 303.479 100.206 305.767 101.306C308.099 102.406 309.815 103.792 310.915 105.464C312.015 107.136 312.565 109.27 312.565 111.866C312.565 114.682 311.773 117.146 310.189 119.258C308.649 121.326 306.449 122.91 303.589 124.01C300.773 125.11 297.517 125.66 293.821 125.66ZM334.12 125.66C329.236 125.66 325.342 124.252 322.438 121.436C319.578 118.576 318.06 114.572 317.884 109.424L317.818 107.774L317.884 106.124C318.104 101.108 319.644 97.17 322.504 94.31C325.408 91.45 329.28 90.02 334.12 90.02C339.312 90.02 343.316 91.604 346.132 94.772C348.992 97.94 350.422 102.164 350.422 107.444V108.83C350.422 109.27 350.268 109.644 349.96 109.952C349.652 110.26 349.256 110.414 348.772 110.414H326.86V110.942C326.948 113.362 327.608 115.408 328.84 117.08C330.116 118.708 331.854 119.522 334.054 119.522C336.65 119.522 338.74 118.51 340.324 116.486C340.72 116.002 341.028 115.694 341.248 115.562C341.512 115.43 341.886 115.364 342.37 115.364H348.046C348.442 115.364 348.772 115.496 349.036 115.76C349.344 115.98 349.498 116.266 349.498 116.618C349.498 117.674 348.86 118.928 347.584 120.38C346.352 121.788 344.57 123.02 342.238 124.076C339.906 125.132 337.2 125.66 334.12 125.66ZM341.446 104.87V104.672C341.446 102.076 340.786 99.986 339.466 98.402C338.19 96.818 336.408 96.026 334.12 96.026C331.832 96.026 330.05 96.818 328.774 98.402C327.498 99.986 326.86 102.076 326.86 104.672V104.87H341.446ZM359.012 125C358.572 125 358.198 124.846 357.89 124.538C357.582 124.23 357.428 123.856 357.428 123.416V92.33C357.428 91.89 357.582 91.516 357.89 91.208C358.198 90.856 358.572 90.68 359.012 90.68H364.358C364.842 90.68 365.238 90.834 365.546 91.142C365.854 91.45 366.008 91.846 366.008 92.33V95.036C367.064 93.628 368.384 92.55 369.968 91.802C371.596 91.054 373.444 90.68 375.512 90.68H378.218C378.702 90.68 379.076 90.834 379.34 91.142C379.648 91.406 379.802 91.78 379.802 92.264V97.016C379.802 97.456 379.648 97.83 379.34 98.138C379.076 98.446 378.702 98.6 378.218 98.6H373.07C371.002 98.6 369.374 99.194 368.186 100.382C366.998 101.57 366.404 103.198 366.404 105.266V123.416C366.404 123.856 366.25 124.23 365.942 124.538C365.634 124.846 365.238 125 364.754 125H359.012ZM397.094 125C396.434 125 395.928 124.868 395.576 124.604C395.224 124.296 394.938 123.878 394.718 123.35L382.376 92.726L382.244 92.132C382.244 91.736 382.376 91.406 382.64 91.142C382.948 90.834 383.3 90.68 383.696 90.68H389.042C389.878 90.68 390.45 91.098 390.758 91.934L399.536 115.1L408.314 91.934C408.446 91.626 408.644 91.34 408.908 91.076C409.216 90.812 409.59 90.68 410.03 90.68H415.442C415.794 90.68 416.102 90.834 416.366 91.142C416.674 91.406 416.828 91.736 416.828 92.132C416.828 92.396 416.806 92.594 416.762 92.726L404.354 123.35C404.134 123.878 403.848 124.296 403.496 124.604C403.144 124.868 402.638 125 401.978 125H397.094ZM424.168 85.004C423.728 85.004 423.354 84.85 423.046 84.542C422.738 84.234 422.584 83.86 422.584 83.42V78.668C422.584 78.228 422.738 77.854 423.046 77.546C423.354 77.238 423.728 77.084 424.168 77.084H430.174C430.614 77.084 430.988 77.238 431.296 77.546C431.648 77.854 431.824 78.228 431.824 78.668V83.42C431.824 83.86 431.67 84.234 431.362 84.542C431.054 84.85 430.658 85.004 430.174 85.004H424.168ZM424.432 125C423.992 125 423.618 124.846 423.31 124.538C423.002 124.23 422.848 123.856 422.848 123.416V92.264C422.848 91.824 423.002 91.45 423.31 91.142C423.618 90.834 423.992 90.68 424.432 90.68H429.91C430.394 90.68 430.768 90.834 431.032 91.142C431.34 91.406 431.494 91.78 431.494 92.264V123.416C431.494 123.856 431.34 124.23 431.032 124.538C430.768 124.846 430.394 125 429.91 125H424.432ZM455.101 125.66C450.261 125.66 446.389 124.318 443.485 121.634C440.625 118.95 439.107 115.232 438.931 110.48L438.865 107.84L438.931 105.2C439.107 100.448 440.625 96.73 443.485 94.046C446.389 91.362 450.261 90.02 455.101 90.02C458.533 90.02 461.437 90.636 463.813 91.868C466.233 93.1 468.015 94.618 469.159 96.422C470.347 98.182 470.985 99.854 471.073 101.438C471.117 101.878 470.963 102.252 470.611 102.56C470.303 102.868 469.929 103.022 469.489 103.022H463.681C463.241 103.022 462.889 102.934 462.625 102.758C462.405 102.538 462.185 102.186 461.965 101.702C461.305 99.986 460.425 98.754 459.325 98.006C458.269 97.258 456.905 96.884 455.233 96.884C452.989 96.884 451.229 97.61 449.953 99.062C448.677 100.47 447.995 102.626 447.907 105.53L447.841 107.972L447.907 110.15C448.083 115.914 450.525 118.796 455.233 118.796C456.949 118.796 458.335 118.422 459.391 117.674C460.447 116.926 461.305 115.694 461.965 113.978C462.185 113.494 462.405 113.164 462.625 112.988C462.889 112.768 463.241 112.658 463.681 112.658H469.489C469.929 112.658 470.303 112.812 470.611 113.12C470.963 113.428 471.117 113.802 471.073 114.242C470.985 115.782 470.369 117.432 469.225 119.192C468.081 120.952 466.321 122.47 463.945 123.746C461.569 125.022 458.621 125.66 455.101 125.66ZM492.74 125.66C487.856 125.66 483.962 124.252 481.058 121.436C478.198 118.576 476.68 114.572 476.504 109.424L476.438 107.774L476.504 106.124C476.724 101.108 478.264 97.17 481.124 94.31C484.028 91.45 487.9 90.02 492.74 90.02C497.932 90.02 501.936 91.604 504.752 94.772C507.612 97.94 509.042 102.164 509.042 107.444V108.83C509.042 109.27 508.888 109.644 508.58 109.952C508.272 110.26 507.876 110.414 507.392 110.414H485.48V110.942C485.568 113.362 486.228 115.408 487.46 117.08C488.736 118.708 490.474 119.522 492.674 119.522C495.27 119.522 497.36 118.51 498.944 116.486C499.34 116.002 499.648 115.694 499.868 115.562C500.132 115.43 500.506 115.364 500.99 115.364H506.666C507.062 115.364 507.392 115.496 507.656 115.76C507.964 115.98 508.118 116.266 508.118 116.618C508.118 117.674 507.48 118.928 506.204 120.38C504.972 121.788 503.19 123.02 500.858 124.076C498.526 125.132 495.82 125.66 492.74 125.66ZM500.066 104.87V104.672C500.066 102.076 499.406 99.986 498.086 98.402C496.81 96.818 495.028 96.026 492.74 96.026C490.452 96.026 488.67 96.818 487.394 98.402C486.118 99.986 485.48 102.076 485.48 104.672V104.87H500.066Z" fill="#363853"/>
<path d="M361.931 47C361.491 47 361.117 46.846 360.809 46.538C360.501 46.23 360.347 45.856 360.347 45.416V2.45C360.347 1.966 360.479 1.57 360.743 1.262C361.051 0.953997 361.447 0.799997 361.931 0.799997H390.575C391.059 0.799997 391.455 0.953997 391.763 1.262C392.071 1.57 392.225 1.966 392.225 2.45V7.07C392.225 7.554 392.071 7.95 391.763 8.258C391.455 8.522 391.059 8.654 390.575 8.654H369.389V21.194H389.255C389.739 21.194 390.135 21.348 390.443 21.656C390.751 21.964 390.905 22.36 390.905 22.844V27.464C390.905 27.948 390.751 28.344 390.443 28.652C390.135 28.916 389.739 29.048 389.255 29.048H369.389V45.416C369.389 45.9 369.235 46.296 368.927 46.604C368.619 46.868 368.223 47 367.739 47H361.931ZM413.729 47.66C408.581 47.66 404.599 46.34 401.783 43.7C398.967 41.016 397.449 37.364 397.229 32.744L397.163 29.84L397.229 26.936C397.449 22.36 398.989 18.73 401.849 16.046C404.709 13.362 408.669 12.02 413.729 12.02C418.789 12.02 422.749 13.362 425.609 16.046C428.469 18.73 430.009 22.36 430.229 26.936C430.273 27.464 430.295 28.432 430.295 29.84C430.295 31.248 430.273 32.216 430.229 32.744C430.009 37.364 428.491 41.016 425.675 43.7C422.859 46.34 418.877 47.66 413.729 47.66ZM413.729 41.126C416.061 41.126 417.865 40.4 419.141 38.948C420.417 37.452 421.121 35.274 421.253 32.414C421.297 31.974 421.319 31.116 421.319 29.84C421.319 28.564 421.297 27.706 421.253 27.266C421.121 24.406 420.417 22.25 419.141 20.798C417.865 19.302 416.061 18.554 413.729 18.554C411.397 18.554 409.593 19.302 408.317 20.798C407.041 22.25 406.337 24.406 406.205 27.266L406.139 29.84L406.205 32.414C406.337 35.274 407.041 37.452 408.317 38.948C409.593 40.4 411.397 41.126 413.729 41.126ZM452.788 47.66C447.64 47.66 443.658 46.34 440.842 43.7C438.026 41.016 436.508 37.364 436.288 32.744L436.222 29.84L436.288 26.936C436.508 22.36 438.048 18.73 440.908 16.046C443.768 13.362 447.728 12.02 452.788 12.02C457.848 12.02 461.808 13.362 464.668 16.046C467.528 18.73 469.068 22.36 469.288 26.936C469.332 27.464 469.354 28.432 469.354 29.84C469.354 31.248 469.332 32.216 469.288 32.744C469.068 37.364 467.55 41.016 464.734 43.7C461.918 46.34 457.936 47.66 452.788 47.66ZM452.788 41.126C455.12 41.126 456.924 40.4 458.2 38.948C459.476 37.452 460.18 35.274 460.312 32.414C460.356 31.974 460.378 31.116 460.378 29.84C460.378 28.564 460.356 27.706 460.312 27.266C460.18 24.406 459.476 22.25 458.2 20.798C456.924 19.302 455.12 18.554 452.788 18.554C450.456 18.554 448.652 19.302 447.376 20.798C446.1 22.25 445.396 24.406 445.264 27.266L445.198 29.84L445.264 32.414C445.396 35.274 446.1 37.452 447.376 38.948C448.652 40.4 450.456 41.126 452.788 41.126ZM489.405 47.66C484.961 47.66 481.551 46.23 479.175 43.37C476.799 40.51 475.523 36.704 475.347 31.952L475.281 29.774L475.347 27.662C475.479 23.042 476.733 19.28 479.109 16.376C481.529 13.472 484.961 12.02 489.405 12.02C493.673 12.02 497.061 13.472 499.569 16.376V1.724C499.569 1.24 499.723 0.865999 500.031 0.601999C500.339 0.293998 500.713 0.139997 501.153 0.139997H506.763C507.247 0.139997 507.621 0.293998 507.885 0.601999C508.193 0.865999 508.347 1.24 508.347 1.724V45.416C508.347 45.856 508.193 46.23 507.885 46.538C507.621 46.846 507.247 47 506.763 47H501.549C501.109 47 500.735 46.846 500.427 46.538C500.119 46.23 499.965 45.856 499.965 45.416V42.974C497.457 46.098 493.937 47.66 489.405 47.66ZM491.847 40.598C494.399 40.598 496.291 39.784 497.523 38.156C498.755 36.528 499.437 34.526 499.569 32.15C499.613 31.622 499.635 30.764 499.635 29.576C499.635 28.432 499.613 27.596 499.569 27.068C499.481 24.868 498.777 22.998 497.457 21.458C496.181 19.874 494.311 19.082 491.847 19.082C487.095 19.082 484.565 22.008 484.257 27.86L484.191 29.84L484.257 31.82C484.565 37.672 487.095 40.598 491.847 40.598ZM4.732 125C4.292 125 3.918 124.846 3.61 124.538C3.302 124.23 3.148 123.856 3.148 123.416V80.45C3.148 79.966 3.28 79.57 3.544 79.262C3.852 78.954 4.248 78.8 4.732 78.8H20.836C33.772 78.8 40.372 84.784 40.636 96.752C40.724 99.304 40.768 101.02 40.768 101.9C40.768 102.736 40.724 104.43 40.636 106.982C40.46 113.142 38.81 117.696 35.686 120.644C32.562 123.548 27.722 125 21.166 125H4.732ZM20.836 117.41C24.532 117.41 27.194 116.596 28.822 114.968C30.45 113.296 31.308 110.568 31.396 106.784C31.484 104.144 31.528 102.494 31.528 101.834C31.528 101.13 31.484 99.502 31.396 96.95C31.308 93.342 30.384 90.68 28.624 88.964C26.908 87.248 24.202 86.39 20.506 86.39H12.322V117.41H20.836ZM63.5463 125.66C58.6623 125.66 54.7683 124.252 51.8643 121.436C49.0043 118.576 47.4863 114.572 47.3103 109.424L47.2443 107.774L47.3103 106.124C47.5303 101.108 49.0703 97.17 51.9303 94.31C54.8343 91.45 58.7063 90.02 63.5463 90.02C68.7383 90.02 72.7423 91.604 75.5583 94.772C78.4183 97.94 79.8483 102.164 79.8483 107.444V108.83C79.8483 109.27 79.6943 109.644 79.3863 109.952C79.0783 110.26 78.6823 110.414 78.1983 110.414H56.2863V110.942C56.3743 113.362 57.0343 115.408 58.2663 117.08C59.5423 118.708 61.2803 119.522 63.4803 119.522C66.0763 119.522 68.1663 118.51 69.7503 116.486C70.1463 116.002 70.4543 115.694 70.6743 115.562C70.9383 115.43 71.3123 115.364 71.7963 115.364H77.4723C77.8683 115.364 78.1983 115.496 78.4623 115.76C78.7703 115.98 78.9243 116.266 78.9243 116.618C78.9243 117.674 78.2863 118.928 77.0103 120.38C75.7783 121.788 73.9963 123.02 71.6643 124.076C69.3323 125.132 66.6263 125.66 63.5463 125.66ZM70.8723 104.87V104.672C70.8723 102.076 70.2123 99.986 68.8923 98.402C67.6163 96.818 65.8343 96.026 63.5463 96.026C61.2583 96.026 59.4763 96.818 58.2003 98.402C56.9243 99.986 56.2863 102.076 56.2863 104.672V104.87H70.8723ZM88.504 125C88.064 125 87.69 124.846 87.382 124.538C87.074 124.23 86.92 123.856 86.92 123.416V79.724C86.92 79.24 87.074 78.866 87.382 78.602C87.69 78.294 88.064 78.14 88.504 78.14H93.982C94.466 78.14 94.84 78.294 95.104 78.602C95.412 78.866 95.566 79.24 95.566 79.724V123.416C95.566 123.856 95.412 124.23 95.104 124.538C94.84 124.846 94.466 125 93.982 125H88.504ZM105.641 85.004C105.201 85.004 104.827 84.85 104.519 84.542C104.211 84.234 104.057 83.86 104.057 83.42V78.668C104.057 78.228 104.211 77.854 104.519 77.546C104.827 77.238 105.201 77.084 105.641 77.084H111.647C112.087 77.084 112.461 77.238 112.769 77.546C113.121 77.854 113.297 78.228 113.297 78.668V83.42C113.297 83.86 113.143 84.234 112.835 84.542C112.527 84.85 112.131 85.004 111.647 85.004H105.641ZM105.905 125C105.465 125 105.091 124.846 104.783 124.538C104.475 124.23 104.321 123.856 104.321 123.416V92.264C104.321 91.824 104.475 91.45 104.783 91.142C105.091 90.834 105.465 90.68 105.905 90.68H111.383C111.867 90.68 112.241 90.834 112.505 91.142C112.813 91.406 112.967 91.78 112.967 92.264V123.416C112.967 123.856 112.813 124.23 112.505 124.538C112.241 124.846 111.867 125 111.383 125H105.905ZM133.867 125C133.207 125 132.701 124.868 132.349 124.604C131.997 124.296 131.711 123.878 131.491 123.35L119.149 92.726L119.017 92.132C119.017 91.736 119.149 91.406 119.413 91.142C119.721 90.834 120.073 90.68 120.469 90.68H125.815C126.651 90.68 127.223 91.098 127.531 91.934L136.309 115.1L145.087 91.934C145.219 91.626 145.417 91.34 145.681 91.076C145.989 90.812 146.363 90.68 146.803 90.68H152.215C152.567 90.68 152.875 90.834 153.139 91.142C153.447 91.406 153.601 91.736 153.601 92.132C153.601 92.396 153.579 92.594 153.535 92.726L141.127 123.35C140.907 123.878 140.621 124.296 140.269 124.604C139.917 124.868 139.411 125 138.751 125H133.867ZM173.181 125.66C168.297 125.66 164.403 124.252 161.499 121.436C158.639 118.576 157.121 114.572 156.945 109.424L156.879 107.774L156.945 106.124C157.165 101.108 158.705 97.17 161.565 94.31C164.469 91.45 168.341 90.02 173.181 90.02C178.373 90.02 182.377 91.604 185.193 94.772C188.053 97.94 189.483 102.164 189.483 107.444V108.83C189.483 109.27 189.329 109.644 189.021 109.952C188.713 110.26 188.317 110.414 187.833 110.414H165.921V110.942C166.009 113.362 166.669 115.408 167.901 117.08C169.177 118.708 170.915 119.522 173.115 119.522C175.711 119.522 177.801 118.51 179.385 116.486C179.781 116.002 180.089 115.694 180.309 115.562C180.573 115.43 180.947 115.364 181.431 115.364H187.107C187.503 115.364 187.833 115.496 188.097 115.76C188.405 115.98 188.559 116.266 188.559 116.618C188.559 117.674 187.921 118.928 186.645 120.38C185.413 121.788 183.631 123.02 181.299 124.076C178.967 125.132 176.261 125.66 173.181 125.66ZM180.507 104.87V104.672C180.507 102.076 179.847 99.986 178.527 98.402C177.251 96.818 175.469 96.026 173.181 96.026C170.893 96.026 169.111 96.818 167.835 98.402C166.559 99.986 165.921 102.076 165.921 104.672V104.87H180.507ZM198.073 125C197.633 125 197.259 124.846 196.951 124.538C196.643 124.23 196.489 123.856 196.489 123.416V92.33C196.489 91.89 196.643 91.516 196.951 91.208C197.259 90.856 197.633 90.68 198.073 90.68H203.419C203.903 90.68 204.299 90.834 204.607 91.142C204.915 91.45 205.069 91.846 205.069 92.33V95.036C206.125 93.628 207.445 92.55 209.029 91.802C210.657 91.054 212.505 90.68 214.573 90.68H217.279C217.763 90.68 218.137 90.834 218.401 91.142C218.709 91.406 218.863 91.78 218.863 92.264V97.016C218.863 97.456 218.709 97.83 218.401 98.138C218.137 98.446 217.763 98.6 217.279 98.6H212.131C210.063 98.6 208.435 99.194 207.247 100.382C206.059 101.57 205.465 103.198 205.465 105.266V123.416C205.465 123.856 205.311 124.23 205.003 124.538C204.695 124.846 204.299 125 203.815 125H198.073ZM230.214 137.54C229.862 137.54 229.554 137.408 229.29 137.144C229.026 136.88 228.894 136.572 228.894 136.22C228.894 135.824 228.982 135.472 229.158 135.164L234.306 122.954L221.634 93.056C221.458 92.66 221.37 92.352 221.37 92.132C221.414 91.736 221.568 91.406 221.832 91.142C222.096 90.834 222.426 90.68 222.822 90.68H228.168C229.004 90.68 229.598 91.098 229.95 91.934L238.728 113.516L247.77 91.934C248.122 91.098 248.716 90.68 249.552 90.68H254.832C255.184 90.68 255.492 90.812 255.756 91.076C256.064 91.34 256.218 91.648 256.218 92C256.218 92.308 256.13 92.66 255.954 93.056L237.276 136.286C236.88 137.122 236.264 137.54 235.428 137.54H230.214Z" fill="#FF7A50"/>
</svg>
